# xmcd
#
# Track frame offsets:
#	150
#	6427
#	27638
#	44736
#	64212
#	80833
#	98026
#	114339
#	127735
#	152618
#	168828
#
# Disc length: 2500 seconds
#
# Revision: 1
# Processed by: cddbd v1.4PL0 Copyright (c) Steve Scherf et al.
# Submitted via: EasyCDDAExtractor 5.0.6
#
DISCID=8b09c20b
DTITLE=Olveti Blues Band - Pocsolyaba leptem
DYEAR=2002
DGENRE=Blues
TTITLE0=Intro
TTITLE1=Szazezer eves
TTITLE2=Gyonyoru napok
TTITLE3=Seta a varosban I
TTITLE4=Seta a varosban II
TTITLE5=Sok kis koldus
TTITLE6=Pocsolyaba leptem
TTITLE7=Voltam keleten
TTITLE8=Jim Beam
TTITLE9=Nem jo
TTITLE10=Kit erdekel
EXTD=© Olveti 2002\nDigitally remixed in Sweden, July 2002
EXTT0=
EXTT1=
EXTT2=
EXTT3=
EXTT4=
EXTT5=
EXTT6=
EXTT7=
EXTT8=
EXTT9=
EXTT10=
PLAYORDER=
